<svg id="Layer_1" xmlns="http://www.w3.org/2000/svg" xmlns:xlink="http://www.w3.org/1999/xlink" viewBox="-146 -462 4363.4 419.8"><style>.st3{display:none;fill:#ff8c16}</style><g id="Layer1"><g id="Shape1"><path id="shapePath1" d="M503.5-116.4c-47.3 0-85.1-14.9-113.5-44.6-28.4-29.7-42.5-69.4-42.5-118.9 0-50.1 14.2-89.9 42.7-119.4 28.5-29.5 66.9-44.2 115.4-44.2 48.1 0 86.5 14.7 115.1 44.2 28.6 29.5 42.8 69 42.8 118.7 0 50.8-14.3 90.9-42.8 120.2-28.6 29.3-67.7 44-117.2 44m.8-43c27.8 0 49.8-10.9 66-32.7 16.2-21.8 24.3-51.4 24.3-88.7 0-36.2-8.1-65.3-24.4-87.2-16.3-21.9-37.8-32.8-64.6-32.8-27.1 0-48.7 10.9-64.9 32.8-16.2 21.9-24.3 51.2-24.3 87.8 0 36.3 8.1 65.6 24.2 87.7 16.1 22.1 37.3 33.1 63.7 33.1M721.8-41.1v-314.3h62.3v43.6c16-32.6 41.2-48.8 75.6-48.8 27.8 0 49.6 10.2 65.6 30.5 15.9 20.4 23.9 48.4 23.9 84 0 38.7-9 69.6-26.9 92.6-18 23-42 34.5-72.2 34.5-24.3 0-46.2-9.5-65.9-28.6v106.5h-62.4m62.3-143.5c15.2 16.8 31.3 25.3 48.4 25.3 15.3 0 27.5-7.4 36.6-22.2 9.1-14.8 13.7-34.6 13.7-59.3 0-47.3-15.2-70.9-45.7-70.9-18.4 0-36.1 11.9-53.1 35.6v91.5m411.6 52.6c-29.6 8.7-57.7 13.1-84.2 13.1-38.6 0-69-10.9-91.4-32.8-22.3-21.9-33.5-51.8-33.5-89.7 0-35.8 10.2-64.6 30.6-86.4 20.4-21.8 47.4-32.7 81-32.7 33.8 0 58.5 10.7 74.1 32 15.6 21.3 23.4 55.1 23.4 101.3h-143.4c4.2 44.1 28.4 66.1 72.6 66.1 20.9 0 44.5-4.8 70.7-14.5v43.6m-144.2-130.5h83c0-39.4-12.7-59.2-38.1-59.2-25.8 0-40.8 19.7-44.9 59.2M1260-124.2v-231.2h62.3v43.6c20.3-32.6 46.6-48.8 78.7-48.8 20.6 0 36.9 6.5 48.8 19.6 11.9 13.1 17.9 30.9 17.9 53.5v163.4h-62.3v-148c0-26.2-8.7-39.4-26.1-39.4-19.8 0-38.8 14-57 41.9v145.5H1260m326.3-.1l-77.7-311.6h61.3l56.8 228 53.7-228h54.1l50.9 226.7 59.8-226.7h44.8l-81.7 311.6h-61.9l-48-213.7-50.3 213.7h-61.8m534.6-7.8c-29.6 8.7-57.7 13.1-84.2 13.1-38.6 0-69-10.9-91.4-32.8-22.3-21.9-33.5-51.8-33.5-89.7 0-35.8 10.2-64.6 30.6-86.4 20.4-21.8 47.4-32.7 80.9-32.7 33.8 0 58.5 10.7 74.1 32 15.6 21.3 23.4 55.1 23.4 101.3h-143.4c4.2 44.1 28.4 66.1 72.6 66.1 20.9 0 44.5-4.8 70.7-14.5v43.6m-144-130.5h82.9c0-39.4-12.7-59.2-38.1-59.2-25.7 0-40.7 19.7-44.8 59.2m321.9 113.4c-20.8 20.1-43 30.1-66.7 30.1-20.2 0-36.6-6.2-49.3-18.5-12.6-12.4-18.9-28.4-18.9-48 0-25.5 10.2-45.2 30.6-59.1 20.4-13.8 49.6-20.7 87.7-20.7h16.6v-21.1c0-24-13.7-36-41.1-36-24.3 0-48.8 6.9-73.7 20.6v-42.9c28.2-10.7 56.1-16 83.8-16 60.5 0 90.7 24.1 90.7 72.2v102.3c0 18.1 5.8 27.2 17.5 27.2 2.1 0 4.8-.3 8.2-.8l1.5 34.9c-13.2 3.9-24.8 5.9-34.9 5.9-25.5 0-42-10-49.3-30.1h-2.7m0-33.4v-46.9h-14.7c-40.3 0-60.4 12.6-60.4 37.9 0 8.6 2.9 15.8 8.7 21.6 5.8 5.8 13 8.7 21.6 8.7 14.6-.1 29.5-7.2 44.8-21.3m259.4 57c-14.9 4.4-26.6 6.5-35.2 6.5-54 0-81.1-25.3-81.1-75.8v-121.7h-25.9v-38.9h25.9v-38.9l62.3-7.2v46.1h49.5v38.9H2504V-203c0 28.4 11.6 42.5 34.7 42.5 5.3 0 11.7-1 19.2-2.9v37.9m55.5 1.3v-332.4h62.3v144.8c20.4-32.6 46.6-48.8 78.7-48.8 20.6 0 36.9 6.5 48.8 19.6 11.9 13.1 17.9 30.9 17.9 53.5v163.4h-62.3v-148c0-26.2-8.7-39.4-26.1-39.4-19.8 0-38.8 14-57.1 41.9v145.5h-62.2m471.4-7.9c-29.6 8.7-57.7 13.1-84.2 13.1-38.6 0-69-10.9-91.4-32.8-22.3-21.9-33.5-51.8-33.5-89.7 0-35.8 10.2-64.6 30.6-86.4 20.4-21.8 47.4-32.7 80.9-32.7 33.8 0 58.5 10.7 74.1 32 15.6 21.3 23.4 55.1 23.4 101.3h-143.4c4.2 44.1 28.4 66.1 72.6 66.1 20.9 0 44.5-4.8 70.7-14.5v43.6m-144-130.5h83c0-39.4-12.7-59.2-38.1-59.2-25.9 0-40.8 19.7-44.9 59.2m208.6 138.3v-231.2h62.3v43.6c16.1-32.6 40.7-48.8 73.7-48.8 3.9 0 7.8.4 11.6 1.3v55.6c-8.8-3.2-17.1-4.8-24.6-4.8-24.8 0-45 12.6-60.6 37.7v146.7h-62.4m196-.1v-311.6h85.9l74.9 219.1 77.3-219.1h75.4v311.6h-59.8v-235.2l-76 214.3h-52.2l-74.5-217.5v238.3h-51m504.6-24.8c-20.8 20.1-43 30.1-66.7 30.1-20.2 0-36.6-6.2-49.3-18.5-12.6-12.4-18.9-28.4-18.9-48 0-25.5 10.2-45.2 30.6-59.1 20.4-13.8 49.6-20.7 87.7-20.7h16.6v-21.1c0-24-13.7-36-41.1-36-24.3 0-48.8 6.9-73.7 20.6v-42.9c28.2-10.7 56.1-16 83.8-16 60.5 0 90.7 24.1 90.7 72.2v102.3c0 18.1 5.8 27.2 17.5 27.2 2.1 0 4.8-.3 8.2-.8l1.5 34.9c-13.2 3.9-24.8 5.9-34.9 5.9-25.5 0-42-10-49.3-30.1h-2.7m0-33.4v-46.9h-14.7c-40.3 0-60.4 12.6-60.4 37.9 0 8.6 2.9 15.8 8.7 21.6 5.8 5.8 13 8.7 21.6 8.7 14.6-.1 29.5-7.2 44.8-21.3M3990-41.1v-314.3h62.3v43.6c16-32.6 41.2-48.8 75.6-48.8 27.8 0 49.7 10.2 65.6 30.5 15.9 20.4 23.9 48.4 23.9 84 0 38.7-9 69.6-26.9 92.6-18 23-42 34.5-72.2 34.5-24.3 0-46.2-9.5-65.9-28.6v106.5H3990m62.3-143.5c15.2 16.8 31.3 25.3 48.4 25.3 15.3 0 27.5-7.4 36.6-22.2 9.1-14.8 13.7-34.6 13.7-59.3 0-47.3-15.2-70.9-45.7-70.9-18.4 0-36.1 11.9-53.1 35.6v91.5z" fill="#ff8c18"/></g></g><path class="st3" d="M17-283.4c0-1.9.3-3.5.9-4.8.4-1 1-1.8 1.7-2.6s1.5-1.3 2.4-1.7c1.2-.5 2.5-.7 4-.7 2.7 0 4.9.9 6.6 2.6 1.6 1.7 2.5 4.1 2.5 7.1s-.8 5.4-2.5 7.1c-1.6 1.7-3.8 2.5-6.6 2.5s-5-.8-6.6-2.5c-1.6-1.7-2.4-4.1-2.4-7zm3.9-.2c0 2.1.5 3.7 1.5 4.8 1 1.1 2.2 1.6 3.7 1.6s2.7-.5 3.7-1.6 1.4-2.7 1.4-4.9c0-2.1-.5-3.7-1.4-4.8-.9-1.1-2.2-1.6-3.7-1.6s-2.8.5-3.7 1.6c-1 1.2-1.5 2.8-1.5 4.9zm0 0M39-287.7h3.3v2c.4-.7 1-1.2 1.8-1.7.7-.4 1.6-.6 2.5-.6 1.6 0 2.9.6 4 1.8 1.1 1.2 1.6 2.9 1.6 5.1 0 2.3-.5 4-1.6 5.3-1.1 1.2-2.4 1.9-4 1.9-.7 0-1.4-.1-2-.4-.6-.3-1.2-.8-1.9-1.5v6.8H39v-18.7zm3.6 6.5c0 1.5.3 2.6.9 3.4.6.7 1.3 1.1 2.2 1.1.8 0 1.5-.3 2.1-1 .6-.7.8-1.8.8-3.3 0-1.4-.3-2.5-.9-3.1-.6-.7-1.3-1-2.1-1-.9 0-1.6.3-2.2 1-.5.6-.8 1.6-.8 2.9zm0 0M64.2-278.5l3.6.6c-.5 1.3-1.2 2.3-2.2 3-1 .7-2.2 1-3.7 1-2.3 0-4.1-.8-5.2-2.3-.9-1.2-1.3-2.8-1.3-4.6 0-2.2.6-4 1.7-5.3 1.2-1.3 2.6-1.9 4.4-1.9 2 0 3.6.7 4.7 2 1.2 1.3 1.7 3.4 1.7 6.1H59c0 1.1.3 1.9.9 2.5.6.6 1.2.9 2.1.9.6 0 1-.2 1.4-.5.3-.4.6-.9.8-1.5zm.2-3.6c0-1-.3-1.8-.8-2.4-.5-.5-1.1-.8-1.9-.8-.8 0-1.4.3-1.9.9-.5.6-.8 1.3-.8 2.3h5.4zm0 0M83.9-274.2h-3.6v-6.9c0-1.5-.1-2.4-.2-2.8-.2-.4-.4-.8-.7-1-.3-.2-.8-.4-1.2-.4-.6 0-1.2.2-1.7.5s-.8.8-1 1.3c-.2.6-.3 1.6-.3 3.1v6.1h-3.6v-13.5h3.3v2c1.2-1.5 2.7-2.3 4.4-2.3.8 0 1.5.1 2.2.4.6.3 1.1.6 1.5 1.1.3.4.6.9.7 1.5.1.6.2 1.4.2 2.4v8.5zm0 0M20.4-241.2L16-259.9h3.8l2.8 12.8 3.4-12.8h4.5l3.3 13 2.9-13h3.8L36-241.3h-4l-3.7-13.9-3.7 13.9h-4.2zm0 0M48.8-245.5l3.6.6c-.5 1.3-1.2 2.3-2.2 3-1 .7-2.2 1-3.7 1-2.3 0-4.1-.8-5.2-2.3-.9-1.2-1.3-2.8-1.3-4.6 0-2.2.6-4 1.8-5.3 1.2-1.3 2.6-1.9 4.4-1.9 2 0 3.6.7 4.7 2 1.2 1.3 1.7 3.4 1.7 6.1h-8.9c0 1.1.3 1.9.9 2.5.6.6 1.2.9 2.1.9.6 0 1-.2 1.4-.5.2-.4.5-.9.7-1.5zm.2-3.6c0-1-.3-1.8-.8-2.4-.5-.5-1.1-.8-1.9-.8-.8 0-1.4.3-1.9.9-.5.6-.8 1.3-.8 2.3H49zm0 0M58.9-250.6l-3.2-.6c.4-1.3 1-2.3 1.9-2.9.9-.6 2.2-.9 4-.9 1.6 0 2.8.2 3.6.6.8.4 1.3.9 1.6 1.4.3.6.5 1.6.5 3.2v4.2c0 1.2.1 2.1.2 2.6.1.6.3 1.2.6 1.8h-3.5c-.1-.2-.2-.6-.3-1.1-.1-.2-.1-.4-.1-.4-.6.6-1.3 1-2 1.3-.7.3-1.4.4-2.2.4-1.4 0-2.5-.4-3.3-1.1-.8-.8-1.2-1.7-1.2-2.9 0-.8.2-1.4.5-2 .4-.6.9-1.1 1.5-1.4.7-.3 1.6-.6 2.8-.8 1.7-.3 2.8-.6 3.5-.9v-.4c0-.7-.2-1.2-.5-1.5-.3-.3-1-.4-1.9-.4-.6 0-1.1.1-1.5.4-.5.3-.8.8-1 1.4zm4.8 2.9c-.5.2-1.2.3-2.2.5-1 .2-1.6.4-1.9.6-.5.3-.7.8-.7 1.3s.2.9.6 1.3c.4.4.8.5 1.4.5.6 0 1.3-.2 1.8-.6.4-.3.7-.7.9-1.2.1-.3.1-.9.1-1.7v-.7zm0 0M77.7-254.7v2.8h-2.4v5.4c0 1.1 0 1.7.1 1.9 0 .2.2.3.3.4.2.1.4.2.6.2.3 0 .8-.1 1.4-.3l.3 2.8c-.8.4-1.8.5-2.8.5-.6 0-1.2-.1-1.7-.3-.5-.2-.9-.5-1.1-.8-.2-.3-.4-.8-.5-1.4-.1-.4-.1-1.3-.1-2.5v-5.9h-1.6v-2.8h1.6v-2.7l3.6-2.1v4.8h2.3zm0 0M85.6-259.9v6.8c1.1-1.3 2.5-2 4.1-2 .8 0 1.6.2 2.2.5.7.3 1.2.7 1.5 1.2.3.5.6 1 .7 1.6.1.6.2 1.5.2 2.7v7.9h-3.6v-7.1c0-1.4-.1-2.3-.2-2.7-.1-.4-.4-.7-.7-.9-.3-.2-.8-.3-1.3-.3-.6 0-1.1.1-1.6.4-.5.3-.8.7-1 1.3-.2.6-.3 1.4-.3 2.6v6.8H82v-18.6h3.6zm0 0M107-245.5l3.6.6c-.5 1.3-1.2 2.3-2.2 3-1 .7-2.2 1-3.7 1-2.3 0-4.1-.8-5.2-2.3-.9-1.2-1.3-2.8-1.3-4.6 0-2.2.6-4 1.8-5.3 1.2-1.3 2.6-1.9 4.4-1.9 2 0 3.6.7 4.7 2 1.2 1.3 1.7 3.4 1.7 6.1h-8.9c0 1.1.3 1.9.9 2.5.5.6 1.2.9 2.1.9.6 0 1-.2 1.4-.5.2-.4.5-.9.7-1.5zm.2-3.6c0-1-.3-1.8-.8-2.4-.5-.5-1.1-.8-1.9-.8-.8 0-1.4.3-1.9.9-.5.6-.8 1.3-.8 2.3h5.4zm0 0M117.8-241.2h-3.6v-13.5h3.3v1.9c.6-.9 1.1-1.5 1.5-1.8.5-.3 1-.4 1.5-.4.8 0 1.6.2 2.3.7l-1.1 3.1c-.6-.4-1.2-.6-1.7-.6s-.9.1-1.3.4c-.3.3-.6.8-.8 1.5-.2.7-.3 2.2-.3 4.5v4.2zm0 0M17.7-208.2v-18.6h5.6l3.4 12.7 3.3-12.7h5.6v18.6h-3.5v-14.7l-3.7 14.7h-3.6l-3.7-14.7v14.7h-3.4zm0 0M44-217.6l-3.2-.6c.4-1.3 1-2.3 1.9-2.9.9-.6 2.2-.9 4-.9 1.6 0 2.8.2 3.6.6.8.4 1.3.9 1.6 1.4.3.6.5 1.6.5 3.2v4.2c0 1.2.1 2.1.2 2.6.1.6.3 1.2.6 1.8h-3.5c-.1-.2-.2-.6-.3-1.1-.1-.2-.1-.4-.1-.4-.6.6-1.3 1-2 1.3-.7.3-1.4.4-2.2.4-1.4 0-2.5-.4-3.3-1.1-.8-.8-1.2-1.7-1.2-2.9 0-.8.2-1.4.5-2 .4-.6.9-1.1 1.5-1.4.7-.3 1.6-.6 2.8-.8 1.7-.3 2.8-.6 3.5-.9v-.4c0-.7-.2-1.2-.5-1.5-.3-.3-1-.4-1.9-.4-.6 0-1.1.1-1.5.4-.5.3-.7.8-1 1.4zm4.8 2.9c-.5.2-1.2.3-2.2.5-1 .2-1.6.4-1.9.6-.5.3-.7.8-.7 1.3s.2.9.6 1.3c.4.4.8.5 1.4.5.6 0 1.3-.2 1.8-.6.4-.3.7-.7.9-1.2.1-.3.1-.9.1-1.7v-.7zm0 0M56.5-221.7h3.3v2c.4-.7 1-1.2 1.8-1.6.7-.4 1.6-.6 2.5-.6 1.6 0 2.9.6 4 1.8 1.1 1.2 1.6 2.9 1.6 5.1 0 2.3-.6 4-1.7 5.3-1.1 1.3-2.4 1.9-4 1.9-.7 0-1.4-.1-2-.4-.6-.3-1.2-.8-1.9-1.5v6.8h-3.6v-18.8zm3.6 6.5c0 1.5.3 2.6.9 3.4.6.7 1.3 1.1 2.2 1.1.8 0 1.5-.3 2.1-1 .5-.7.8-1.8.8-3.3 0-1.4-.3-2.5-.9-3.1-.6-.7-1.3-1-2.1-1-.9 0-1.6.3-2.2 1-.6.6-.8 1.6-.8 2.9zm0 0"/><defs><path id="SVGID_1_" d="M-146-462h419.8v419.8H-146z"/></defs><clipPath id="SVGID_2_"><use xlink:href="#SVGID_1_" overflow="visible"/></clipPath><path d="M-146-462.2h420v420h-420v-420zm248.3 314.5c-11.9 4.4-24.8 6.8-38.3 6.8-13.5 0-26.4-2.4-38.3-6.8L64-70.1l38.3-77.6zm-139.2-57.7l-27.8 82 82-27.8c-23.9-11.1-43.2-30.4-54.2-54.2zm201.8 0c-11.1 23.9-30.3 43.1-54.2 54.2l82 27.8-27.8-82zM64-336.1c-48.7 0-88.1 37.6-88.1 83.9s39.4 83.9 88.1 83.9c48.6 0 88.1-37.6 88.1-83.9s-39.5-83.9-88.1-83.9zm-104.5 45.6l-77.6 38.3 77.6 38.3c-4.4-11.9-6.8-24.8-6.8-38.3 0-13.4 2.4-26.3 6.8-38.3zm209 0c4.4 11.9 6.8 24.8 6.8 38.3 0 13.5-2.4 26.4-6.8 38.3l77.6-38.3-77.6-38.3zM-64.8-381l27.8 82c11.1-23.8 30.3-43.1 54.2-54.2l-82-27.8zm257.6 0l-82 27.8c23.9 11.1 43.1 30.3 54.2 54.2l27.8-82zM64-434.3l-38.3 77.6c11.9-4.4 24.8-6.8 38.3-6.8 13.5 0 26.4 2.4 38.3 6.8L64-434.3zm0 0" clip-path="url(#SVGID_2_)" fill="#ff8c18"/></svg>